<?xml version="1.0" encoding="UTF-8"?>
<!DOCTYPE svg PUBLIC "-//W3C//DTD SVG 1.1//EN" "http://www.w3.org/Graphics/SVG/1.1/DTD/svg11.dtd">
<!-- Creator: CorelDRAW X6 -->
<svg xmlns="http://www.w3.org/2000/svg" xml:space="preserve" width="210mm" height="297mm" version="1.1" style="shape-rendering:geometricPrecision; text-rendering:geometricPrecision; image-rendering:optimizeQuality; fill-rule:evenodd; clip-rule:evenodd"
viewBox="0 0 21000 29700"
 xmlns:xlink="http://www.w3.org/1999/xlink">
 <defs>
  <style type="text/css">
   <![CDATA[
    .fil2 {fill:#E31E24}
    .fil0 {fill:#1F1B20}
    .fil3 {fill:#009846;fill-rule:nonzero}
    .fil4 {fill:#2B2A29;fill-rule:nonzero}
    .fil5 {fill:#FFED00;fill-rule:nonzero}
    .fil1 {fill:#1F1B20;fill-rule:nonzero}
   ]]>
  </style>
 </defs>
 <g id="Warstwa_x0020_1">
  <metadata id="CorelCorpID_0Corel-Layer"/>
  <polygon class="fil0" points="10197,6039 6755,13572 10184,13572 7981,18781 7516,18472 6977,21664 9434,19698 8933,19344 14838,11842 10919,11842 17052,6029 "/>
  <path class="fil1" d="M8023 10318c-50,489 -245,871 -582,1148l-2598 2498 2835 0 -136 1669 -4531 0c-537,-64 -836,-369 -898,-912 -27,-544 160,-997 563,-1358l2673 -2463 -2804 0c76,-553 117,-850 241,-1659l4401 -4c639,-1 922,396 836,1081z"/>
  <polygon class="fil2" points="10067,5762 6625,13295 10054,13295 7851,18504 7385,18195 6847,21387 9304,19421 8803,19067 14708,11565 10789,11565 16922,5752 "/>
  <path class="fil1" d="M12974 10897l-2889 0c-195,0 -347,11 -452,34 -106,22 -197,115 -278,280 26,207 92,322 201,349 110,26 279,38 508,38l1411 0c566,39 963,240 1190,603 225,361 312,865 260,1512 -85,647 -271,1125 -559,1434 -288,309 -763,469 -1427,481l-3152 0 136 -1664 3001 1c258,0 465,9 600,-15 135,-23 257,-118 260,-360 3,-177 -86,-281 -206,-316 -120,-35 -323,-53 -605,-53l-1365 0c-600,0 -1026,-179 -1275,-538 -249,-358 -349,-856 -296,-1491 96,-666 292,-1148 588,-1450 295,-300 765,-468 1404,-505l3078 0 -133 1660z"/>
  <path class="fil3" d="M7769 10064c-50,489 -245,871 -582,1148l-2598 2498 2835 0 -136 1669 -4531 0c-537,-64 -836,-369 -898,-912 -27,-544 160,-997 563,-1358l2673 -2463 -2804 0c76,-553 117,-850 241,-1659l4401 -4c639,-1 922,396 836,1081z"/>
  <path class="fil1" d="M18006 15610l-3673 0c-1053,-77 -1498,-1139 -1337,-3188 163,-2051 816,-3111 1955,-3181l3574 0 -136 1659 -3176 0c-269,0 -437,65 -481,244l-109 445 3715 5 -134 1531 -3685 -17 4 359c3,304 101,497 271,497l3346 0 -134 1646z"/>
  <path class="fil3" d="M17752 15356l-3673 0c-1053,-77 -1499,-1139 -1337,-3188 163,-2051 814,-3180 1955,-3181l3588 -1 -139 1660 -3187 0c-269,0 -437,65 -481,244l-109 445 3715 5 -134 1531 -3685 -17 4 359c3,304 101,497 271,497l3346 0 -134 1646z"/>
  <path class="fil3" d="M12720 10643l-2889 0c-195,0 -347,11 -452,34 -106,22 -197,115 -278,280 26,207 92,322 201,349 110,26 279,38 508,38l1411 0c566,39 963,240 1190,603 225,361 312,865 260,1512 -85,647 -271,1125 -559,1434 -288,309 -763,469 -1427,481l-3152 0 136 -1664 3001 1c258,0 465,9 600,-15 135,-23 257,-118 260,-360 3,-177 -86,-281 -206,-316 -120,-35 -323,-53 -605,-53l-1365 0c-600,0 -1026,-179 -1275,-538 -249,-358 -349,-856 -296,-1491 96,-666 292,-1148 588,-1450 295,-300 765,-468 1404,-505l3078 0 -133 1660z"/>
  <path class="fil4" d="M1616 12035c562,-5 941,-8 1232,-11 663,-7 873,-9 1811,-2 720,5 900,-430 1045,-777 124,-299 227,-548 552,-552 368,-6 481,496 609,1064 137,606 294,1303 733,1301 408,-3 706,-824 995,-1620 303,-835 597,-1646 1113,-1656 516,-11 744,1086 990,2271 262,1261 546,2631 1071,2629 552,-2 763,-1198 946,-2240 160,-906 301,-1709 726,-1709l0 1c489,0 688,761 870,1461 130,499 250,960 376,960 166,-1 254,-255 339,-498 111,-318 218,-623 529,-623l3611 0 0 282 -3611 0c-111,0 -186,213 -263,433 -117,336 -239,685 -604,687 -344,2 -491,-562 -649,-1170 -156,-599 -326,-1251 -598,-1251l0 1c-188,0 -310,692 -448,1475 -203,1149 -435,2469 -1224,2472 -754,3 -1063,-1484 -1347,-2853 -221,-1066 -426,-2053 -709,-2047 -322,6 -584,728 -854,1471 -322,887 -654,1802 -1258,1805 -665,3 -849,-811 -1009,-1521 -101,-449 -190,-846 -331,-844 -138,2 -210,173 -295,379 -177,424 -398,956 -1306,950 -936,-7 -1145,-5 -1808,2 -289,3 -666,6 -1233,11l-1 -281z"/>
  <path class="fil5" d="M1522 11953c562,-5 941,-8 1232,-11 663,-7 873,-9 1811,-2 720,5 900,-430 1045,-777 124,-299 227,-548 552,-552 368,-6 481,496 609,1064 137,606 294,1303 733,1301 408,-3 706,-824 995,-1620 303,-835 597,-1646 1113,-1656 516,-11 744,1086 990,2271 262,1261 546,2631 1071,2629 552,-2 762,-1198 946,-2240 160,-906 301,-1709 726,-1709l0 1c489,0 688,761 870,1461 130,499 250,960 376,960 166,-1 254,-255 339,-498 111,-318 218,-623 529,-623l3611 0 0 282 -3611 0c-111,0 -186,213 -263,433 -117,336 -239,685 -604,687 -344,2 -491,-562 -649,-1170 -156,-599 -326,-1251 -598,-1251l0 1c-189,0 -311,692 -448,1475 -203,1149 -435,2469 -1224,2472 -754,3 -1063,-1484 -1347,-2853 -221,-1066 -426,-2053 -709,-2047 -322,6 -584,728 -854,1471 -322,887 -654,1802 -1258,1805 -665,3 -849,-811 -1009,-1521 -101,-449 -191,-846 -331,-844 -138,2 -210,173 -295,379 -177,424 -398,956 -1306,950 -936,-7 -1145,-5 -1808,2 -289,3 -666,6 -1233,11l-1 -281z"/>
 </g>
</svg>
